<svg xmlns="http://www.w3.org/2000/svg" xmlns:xlink="http://www.w3.org/1999/xlink" xmlns:lucid="lucid" width="1542" height="822"><g transform="translate(-199 -359)" lucid:page-tab-id="0_0"><path d="M0 0h2000v1500H0z" fill="#fff"/><path d="M1280 866a6 6 0 0 1 6-6h148a6 6 0 0 1 6 6v108a6 6 0 0 1-6 6h-148a6 6 0 0 1-6-6z" stroke="#000" stroke-width="2" fill="#fff"/><use xlink:href="#a" transform="matrix(1,0,0,1,1292,872) translate(21.75434027777778 39.52777777777778)"/><use xlink:href="#b" transform="matrix(1,0,0,1,1292,872) translate(23.246310763888886 71.79340277777777)"/><path d="M1280 486a6 6 0 0 1 6-6h148a6 6 0 0 1 6 6v108a6 6 0 0 1-6 6h-148a6 6 0 0 1-6-6z" stroke="#000" stroke-width="2" fill="#fff"/><use xlink:href="#c" transform="matrix(1,0,0,1,1292,492) translate(43.558810763888886 57.52777777777778)"/><path d="M1441.7 919.93l-.74-.62 112-130.73h1.25zm228-266.18l-101.66 118.68h-1.26l102.2-119.3z" stroke="#3a414a" stroke-width=".05" fill="#3a414a"/><path d="M1441.7 919.92l-.7.8v-1.4z" fill="#3a414a"/><path stroke="#3a414a" stroke-width=".05" fill="#3a414a"/><path d="M1673.2 656.08l-7.05-6.03 12.8-7.82z" fill="#3a414a"/><path d="M1673.37 656.87l-8.03-6.9 14.6-8.9zm-6.42-6.76l6.05 5.2 4.95-11.9z" stroke="#3a414a" stroke-width=".05" fill="#3a414a"/><use xlink:href="#d" transform="matrix(1,0,0,1,1547.186172916667,772.433886186901) translate(0 12.916666666666668)"/><path d="M880 586a6 6 0 0 1 6-6h148a6 6 0 0 1 6 6v108a6 6 0 0 1-6 6H886a6 6 0 0 1-6-6z" stroke="#000" stroke-width="2" fill="#fff"/><use xlink:href="#e" transform="matrix(1,0,0,1,892,592) translate(46.80859375 39.52777777777778)"/><use xlink:href="#f" transform="matrix(1,0,0,1,892,592) translate(20.64214409722223 71.79340277777777)"/><path d="M560 1066a6 6 0 0 1 6-6h148a6 6 0 0 1 6 6v108a6 6 0 0 1-6 6H566a6 6 0 0 1-6-6z" stroke="#000" stroke-width="2" fill="#fff"/><use xlink:href="#g" transform="matrix(1,0,0,1,572,1072) translate(11.663194444444443 57.52777777777778)"/><use xlink:href="#h" transform="matrix(1,0,0,1,572,1072) translate(58.451388888888886 57.52777777777778)"/><path d="M200 566a6 6 0 0 1 6-6h208a6 6 0 0 1 6 6v148a6 6 0 0 1-6 6H206a6 6 0 0 1-6-6z" stroke="#000" stroke-width="2" fill="#fff"/><use xlink:href="#i" transform="matrix(1,0,0,1,212,572) translate(56.30620659722222 59.77777777777778)"/><use xlink:href="#j" transform="matrix(1,0,0,1,212,572) translate(17.688585069444443 92.04340277777777)"/><path d="M1740 628c0 6.63-26.86 12-60 12s-60-5.37-60-12v-96c0-6.63 26.86-12 60-12s60 5.37 60 12z" stroke="#000" stroke-width="2" fill="#fff"/><path d="M1740 532c0 6.63-26.86 12-60 12s-60-5.37-60-12" stroke="#000" stroke-width="2" fill="none"/><use xlink:href="#k" transform="matrix(1,0,0,1,1625,549) translate(8.754340277777779 51.09027777777778)"/><path d="M720 360c-8.84 0-16 26.86-16 60s7.16 60 16 60H576c-8.84 0-16-26.86-16-60s7.16-60 16-60z" stroke="#000" stroke-width="2" fill="#fff"/><use xlink:href="#l" transform="matrix(1,0,0,1,565,365) translate(6.414062500000007 45.59027777777778)"/><use xlink:href="#m" transform="matrix(1,0,0,1,565,365) translate(21.98480902777778 77.85590277777777)"/><path d="M720 580c-8.84 0-16 26.86-16 60s7.16 60 16 60H576c-8.84 0-16-26.86-16-60s7.16-60 16-60z" stroke="#000" stroke-width="2" fill="#fff"/><use xlink:href="#n" transform="matrix(1,0,0,1,565,585) translate(47.76605902777778 45.59027777777778)"/><use xlink:href="#o" transform="matrix(1,0,0,1,565,585) translate(35.77061631944444 77.85590277777777)"/><path d="M720 800c-8.84 0-16 26.86-16 60s7.16 60 16 60H576c-8.84 0-16-26.86-16-60s7.16-60 16-60z" stroke="#000" stroke-width="2" fill="#fff"/><use xlink:href="#p" transform="matrix(1,0,0,1,565,805) translate(33.51909722222223 45.59027777777778)"/><use xlink:href="#q" transform="matrix(1,0,0,1,565,805) translate(25.739149305555557 77.85590277777777)"/><path d="M1280 686a6 6 0 0 1 6-6h148a6 6 0 0 1 6 6v108a6 6 0 0 1-6 6h-148a6 6 0 0 1-6-6z" stroke="#000" stroke-width="2" fill="#fff"/><use xlink:href="#r" transform="matrix(1,0,0,1,1292,692) translate(34.27061631944444 57.52777777777778)"/><path d="M1507.27 540.48h-65.77v-.96h65.77zm95.35 0h-68.73v-.96h68.72z" stroke="#3a414a" stroke-width=".05" fill="#3a414a"/><path d="M1441.5 540.48h-.5v-.96h.5z" fill="#3a414a"/><path stroke="#3a414a" stroke-width=".05" fill="#3a414a"/><path d="M1617.38 540l-14.26 4.63v-9.26z" fill="#3a414a"/><path d="M1618.92 540l-16.28 5.3v-10.6zm-15.33 3.98l12.25-3.98-12.26-3.98z" stroke="#3a414a" stroke-width=".05" fill="#3a414a"/><use xlink:href="#d" transform="matrix(1,0,0,1,1507.2667829180593,531.93359375) translate(0 12.916666666666668)"/><path d="M1441.68 740.13l-.52-.8 44.3-28.88h1.75zm163.85-106.8l-93.56 61h-1.74l94.78-61.78z" stroke="#3a414a" stroke-width=".05" fill="#3a414a"/><path d="M1441.7 740.12l-.7.45v-1.14l.17-.1z" fill="#3a414a"/><path stroke="#3a414a" stroke-width=".05" fill="#3a414a"/><path d="M1608.22 636.56l-5.06-7.77 14.48-3.92z" fill="#3a414a"/><path d="M1608.18 637.36l-5.77-8.86 16.53-4.46zm-4.26-8.28l4.34 6.67 8.1-10.03z" stroke="#3a414a" stroke-width=".05" fill="#3a414a"/><use xlink:href="#d" transform="matrix(1,0,0,1,1485.407768340619,694.3172674108872) translate(0 12.916666666666668)"/><path d="M1265.76 910.34l-.54.78-24.9-17.1h1.68zm-103.65-71.17h-1.67l-200.3-137.5.55-.78z" stroke="#3a414a" stroke-width=".05" fill="#3a414a"/><path d="M960.15 701.68l-1-.68h1.47z" fill="#3a414a"/><path stroke="#3a414a" stroke-width=".05" fill="#3a414a"/><path d="M1277.67 919.08l-14.4-4.25 5.26-7.64z" fill="#3a414a"/><path d="M1278.93 919.95l-16.4-4.85 5.98-8.72zm-14.9-5.4l12.37 3.66-7.85-10.2z" stroke="#3a414a" stroke-width=".05" fill="#3a414a"/><use xlink:href="#s" transform="matrix(1,0,0,1,1154.395844855266,839.1735407358466) translate(0 12.916666666666668)"/><use xlink:href="#t" transform="matrix(1,0,0,1,1154.395844855266,839.1735407358466) translate(0 32.27604166666667)"/><use xlink:href="#u" transform="matrix(1,0,0,1,1154.395844855266,839.1735407358466) translate(0 51.63541666666667)"/><path d="M940.1 508.54l-.5.28-2.9 1.85-2.8 1.96-2.67 2.07-2.57 2.17-2.45 2.27-2.32 2.36-2.22 2.45-2.1 2.54-2 2.63-1.87 2.73-1.77 2.83-1.65 2.9-1.53 3.04-1.42 3.15-1.3 3.25-1.18 3.4-1.05 3.53-.92 3.7-.8 3.85-.62 4.04-.48 4.24-.3 4.48-.1 4.23h-.94l.1-4.25v-.02l.3-4.5v-.02l.48-4.25v-.02l.64-4.06v-.02l.8-3.88v-.02l.92-3.7v-.02l1.07-3.56v-.02l1.2-3.42v-.02l1.3-3.27v-.02l1.44-3.15v-.02l1.54-3.06 1.67-2.96h.02l1.77-2.85v-.02l1.9-2.75 2-2.67 2.13-2.56v-.02h.02l2.23-2.47 2.36-2.4h.02l2.47-2.28v-.02l2.6-2.18 2.7-2.1h.02l2.82-2h.02l2.9-1.86h.02l.98-.56zm85.73 17.14v.02l.46 1.68v.02l.4 1.76v.02l.33 1.83v.02l.26 1.93v.02l.17 2.02.1 2.13v2.29l-.12 2.38v.02l-.23 2.53v.02l-.37 2.7v.02l-.53 2.9v.02l-.72 3.13v.02l-.94 3.38v.02l-1.2 3.66v.02l-1.5 4v.02l-.08.2-.88-.38.08-.2 1.5-3.97 1.17-3.65.92-3.35.7-3.1.54-2.9.37-2.67.23-2.5.1-2.37v-2.24l-.08-2.1-.18-2-.25-1.9-.33-1.8-.4-1.74-.45-1.66-.35-1.1h1z" stroke="#3a414a" stroke-width=".05" fill="#3a414a"/><path d="M902.6 578.5l-.02.5h-.95v-.53z" fill="#3a414a"/><path stroke="#3a414a" stroke-width=".05" fill="#3a414a"/><path d="M1025.4 566.75l-10.42 10.8 2.08-14.86z" fill="#3a414a"/><path d="M1026.2 566.6l-11.9 12.33 2.38-16.95zm-10.55 9.56l8.95-9.27-7.16-3.5z" stroke="#3a414a" stroke-width=".05" fill="#3a414a"/><use xlink:href="#s" transform="matrix(1,0,0,1,940.0972060640458,470.01210750118815) translate(0 12.916666666666668)"/><use xlink:href="#t" transform="matrix(1,0,0,1,940.0972060640458,470.01210750118815) translate(0 32.27604166666667)"/><use xlink:href="#u" transform="matrix(1,0,0,1,940.0972060640458,470.01210750118815) translate(0 51.63541666666667)"/><path d="M1197.57 564.67l-140.73 41.8-.27-.92 141-41.87zm81.1-24.07l-43.84 13v-.98l43.56-12.93z" stroke="#3a414a" stroke-width=".05" fill="#3a414a"/><path d="M1279 540.5l-.36.1-.27-.9.63-.2z" fill="#3a414a"/><path stroke="#3a414a" stroke-width=".05" fill="#3a414a"/><path d="M1057.55 610.6l-15-.4 12.36-8.5z" fill="#3a414a"/><path d="M1058.2 611.08l-17.12-.44 14.1-9.7zm-14.17-1.3l12.88.32-2.26-7.64z" stroke="#3a414a" stroke-width=".05" fill="#3a414a"/><use xlink:href="#v" transform="matrix(1,0,0,1,1197.5688823656842,540.8999072285771) translate(0 12.916666666666668)"/><use xlink:href="#w" transform="matrix(1,0,0,1,1197.5688823656842,540.8999072285771) translate(0 32.27604166666667)"/><path d="M1278.66 739.4l-.28.9-46.02-14.17v-1zm-83.57-25.75v1l-138.58-42.7.28-.9z" stroke="#3a414a" stroke-width=".05" fill="#3a414a"/><path d="M1279 739.5v1l-.63-.2.28-.9z" fill="#3a414a"/><path stroke="#3a414a" stroke-width=".05" fill="#3a414a"/><path d="M1054.82 675.77l-12.27-8.63 15-.23z" fill="#3a414a"/><path d="M1055.08 676.54l-14-9.85 17.1-.27zm-11.06-8.94l10.53 7.4 2.35-7.6z" stroke="#3a414a" stroke-width=".05" fill="#3a414a"/><use xlink:href="#v" transform="matrix(1,0,0,1,1195.0953375698248,702.1421221268643) translate(0 12.916666666666668)"/><use xlink:href="#w" transform="matrix(1,0,0,1,1195.0953375698248,702.1421221268643) translate(0 32.27604166666667)"/><path d="M867.95 587.9l-.68.65-59.03-61.07h1.32zm-111.4-115.27h-1.33l-50.2-51.94.67-.67z" stroke="#3a414a" stroke-width=".05" fill="#3a414a"/><path d="M705.7 420.04l-.67.65-.03-.7.02-.66z" fill="#3a414a"/><path stroke="#3a414a" stroke-width=".05" fill="#3a414a"/><path d="M877.88 598.84l-13.25-7.04 6.66-6.44z" fill="#3a414a"/><path d="M878.94 599.94l-15.1-8.03 7.6-7.34zm-13.5-8.25l11.37 6.03-5.65-11.58z" stroke="#3a414a" stroke-width=".05" fill="#3a414a"/><use xlink:href="#s" transform="matrix(1,0,0,1,735.5696548233884,472.6316492417245) translate(0 12.916666666666668)"/><use xlink:href="#t" transform="matrix(1,0,0,1,735.5696548233884,472.6316492417245) translate(0 32.27604166666667)"/><use xlink:href="#u" transform="matrix(1,0,0,1,735.5696548233884,472.6316492417245) translate(0 51.63541666666667)"/><path d="M773.8 640.48h-52.4v-.96h52.4zm104.7 0h-68.3v-.96h68.3z" stroke="#3a414a" stroke-width=".05" fill="#3a414a"/><path d="M879 640.48h-.5v-.96h.5z" fill="#3a414a"/><path stroke="#3a414a" stroke-width=".05" fill="#3a414a"/><path d="M720.9 644.63L706.6 640l14.26-4.63z" fill="#3a414a"/><path d="M721.36 645.3l-16.28-5.3 16.28-5.3zm-13.2-5.3l12.25 3.98v-7.96z" stroke="#3a414a" stroke-width=".05" fill="#3a414a"/><use xlink:href="#s" transform="matrix(1,0,0,1,773.8005669182469,622.25390625) translate(0 12.916666666666668)"/><use xlink:href="#w" transform="matrix(1,0,0,1,773.8005669182469,622.25390625) translate(0 32.27604166666667)"/><path d="M716.92 848.75l-.67-.67 57.33-57.33h1.35zM878.98 686.7l-68.56 68.55h-1.34l69.23-69.23z" stroke="#3a414a" stroke-width=".05" fill="#3a414a"/><path d="M879 686.67l-.7-.64.7-.7z" fill="#3a414a"/><path stroke="#3a414a" stroke-width=".05" fill="#3a414a"/><path d="M719.5 852.05l-13.36 6.8 6.82-13.36z" fill="#3a414a"/><path d="M720.3 852.17l-15.24 7.77 7.77-15.25zm-13.07 5.6l11.48-5.85-5.62-5.63z" stroke="#3a414a" stroke-width=".05" fill="#3a414a"/><use xlink:href="#v" transform="matrix(1,0,0,1,773.3676455065482,755.2542716632795) translate(0 12.916666666666668)"/><use xlink:href="#w" transform="matrix(1,0,0,1,773.3676455065482,755.2542716632795) translate(0 32.27604166666667)"/><path d="M728.47 1096.08l-.86-.4 21.4-44.92h1.04zM916.2 701.66L776.16 995.9h-1.05l140.26-294.65z" stroke="#3a414a" stroke-width=".05" fill="#3a414a"/><path d="M916.2 701.67l-.85-.4.12-.27h1.06z" fill="#3a414a"/><path stroke="#3a414a" stroke-width=".05" fill="#3a414a"/><path d="M732 1098.32l-10.3 10.9 1.94-14.9z" fill="#3a414a"/><path d="M732.8 1098.17l-11.76 12.42 2.22-16.98zm-10.44 9.65l8.86-9.36-7.2-3.42z" stroke="#3a414a" stroke-width=".05" fill="#3a414a"/><use xlink:href="#s" transform="matrix(1,0,0,1,715.7486700186541,995.9117559904764) translate(0 12.916666666666668)"/><use xlink:href="#t" transform="matrix(1,0,0,1,715.7486700186541,995.9117559904764) translate(0 32.27604166666667)"/><use xlink:href="#u" transform="matrix(1,0,0,1,715.7486700186541,995.9117559904764) translate(0 51.63541666666667)"/><path d="M421.68 590.28l-.75-.58 62.52-81.8h1.2zm128.18-167.72l-52.88 69.2h-1.2L549.1 422z" stroke="#3a414a" stroke-width=".05" fill="#3a414a"/><path d="M421.7 590.27l-.7.9v-1.43z" fill="#3a414a"/><path stroke="#3a414a" stroke-width=".05" fill="#3a414a"/><path d="M553.47 424.7l-7.36-5.64 12.35-8.52z" fill="#3a414a"/><path d="M553.7 425.46l-8.4-6.42 14.1-9.72zm-6.8-6.38l6.34 4.84 4.28-12.16z" stroke="#3a414a" stroke-width=".05" fill="#3a414a"/><use xlink:href="#x" transform="matrix(1,0,0,1,472.017718294316,491.7566460638043) translate(0 12.916666666666668)"/><path d="M553.78 799.55l-.62.72-51.06-43.88h1.46zm-69-59.3h-1.45l-62.26-53.5.62-.72z" stroke="#3a414a" stroke-width=".05" fill="#3a414a"/><path d="M421.7 686.04l-.62.72-.08-1.32z" fill="#3a414a"/><path stroke="#3a414a" stroke-width=".05" fill="#3a414a"/><path d="M564.67 809.53l-13.84-5.78 6.04-7.03z" fill="#3a414a"/><path d="M565.83 810.54l-15.8-6.6 6.9-8.02zm-14.22-6.97l11.9 4.96-6.7-11z" stroke="#3a414a" stroke-width=".05" fill="#3a414a"/><use xlink:href="#x" transform="matrix(1,0,0,1,475.24644306215066,740.2619175592986) translate(0 12.916666666666668)"/><path d="M458.56 640.48H421.5v-.96h37.06zm84.06 0h-47.66v-.96h47.66z" stroke="#3a414a" stroke-width=".05" fill="#3a414a"/><path d="M421.5 640.48h-.5v-.96h.5z" fill="#3a414a"/><path stroke="#3a414a" stroke-width=".05" fill="#3a414a"/><path d="M557.38 640l-14.26 4.63v-9.26z" fill="#3a414a"/><path d="M558.92 640l-16.28 5.3v-10.6zm-15.33 3.98l12.24-3.98-12.25-3.98z" stroke="#3a414a" stroke-width=".05" fill="#3a414a"/><g><use xlink:href="#x" transform="matrix(1,0,0,1,458.55969182176847,631.93359375) translate(0 12.916666666666668)"/></g><path d="M640.48 1042.62h-.95v-40.5h.95zm0-121.12v25.77h-.95V921.5z" stroke="#3a414a" stroke-width=".05" fill="#3a414a"/><path d="M640.48 921.5h-.95v-.5h.95z" fill="#3a414a"/><path stroke="#3a414a" stroke-width=".05" fill="#3a414a"/><path d="M644.64 1043.12l-4.64 14.26-4.63-14.26z" fill="#3a414a"/><path d="M645.3 1042.64l-5.3 16.28-5.3-16.28zm-5.3 13.2l3.98-12.25h-7.96z" stroke="#3a414a" stroke-width=".05" fill="#3a414a"/><g><use xlink:href="#y" transform="matrix(1,0,0,1,617.7291713236348,947.2662841743095) translate(0 12.916666666666668)"/><use xlink:href="#z" transform="matrix(1,0,0,1,617.7291713236348,947.2662841743095) translate(0 32.27604166666667)"/><use xlink:href="#A" transform="matrix(1,0,0,1,617.7291713236348,947.2662841743095) translate(0 51.63541666666667)"/></g><path d="M1360.47 678.5h-.94v-27.75h.94zm0-49.25h-.94v-11.87h.94z" stroke="#3a414a" stroke-width=".05" fill="#3a414a"/><path d="M1360.47 679h-.94v-.5h.94z" fill="#3a414a"/><path stroke="#3a414a" stroke-width=".05" fill="#3a414a"/><path d="M1364.63 616.88h-9.27l4.64-14.26z" fill="#3a414a"/><path d="M1365.3 617.36h-10.6l5.3-16.28zm-9.28-.95h7.96l-3.98-12.25z" stroke="#3a414a" stroke-width=".05" fill="#3a414a"/><g><use xlink:href="#B" transform="matrix(1,0,0,1,1335.7335069444443,629.2447916666666) translate(0 17.22222222222222)"/></g><defs><path d="M180 0v-1490h510c348 0 508 209 508 474 0 266-160 477-507 477H370V0H180zm190-706h312c236 0 327-133 327-310 0-176-91-307-329-307H370v617" id="C"/><path d="M613 24c-304 0-509-231-509-576 0-350 205-580 509-580 305 0 511 230 511 580 0 345-206 576-511 576zm0-161c226 0 329-195 329-415 0-222-103-419-329-419-223 0-326 196-326 419 0 220 103 415 326 415" id="D"/><path d="M538 24C308 24 148-78 108-271l171-41c32 123 123 178 257 178 156 0 256-77 256-169 0-77-54-128-164-154l-186-44c-203-48-300-148-300-305 0-192 176-326 414-326 230 0 351 112 402 269l-163 42c-31-80-94-158-238-158-133 0-233 69-233 162 0 83 57 129 188 160l169 40c203 48 298 149 298 302 0 196-179 339-441 339" id="E"/><path d="M598-1118v154H368v674c0 100 37 144 132 144 23 0 62-6 92-12L629-6c-37 13-88 20-134 20-193 0-307-107-307-290v-688H20v-154h168v-266h180v266h230" id="F"/><path d="M611 442c-248 0-391-105-460-228l146-94c47 65 117 165 314 165 178 0 307-82 307-266v-224h-17C863-141 792-18 576-18c-268 0-472-195-472-546 0-346 197-568 476-568 216 0 288 133 326 193h17v-179h175V29c0 289-215 413-487 413zm-5-620c203 0 314-146 314-390 0-237-108-403-314-403-213 0-319 180-319 403 0 230 109 390 319 390" id="G"/><path d="M158 0v-1118h174v172h12c41-113 157-188 290-188 26 0 70 2 91 3v181c-11-2-60-10-108-10-161 0-279 109-279 260V0H158" id="H"/><path d="M628 24c-324 0-524-230-524-574 0-343 198-582 503-582 237 0 487 146 487 559v75H286c9 234 145 362 343 362 132 0 231-58 273-172l174 48C1024-91 857 24 628 24zM287-650h624c-17-190-120-322-304-322-192 0-309 151-320 322" id="I"/><g id="a"><use transform="matrix(0.010850694444444444,0,0,0.010850694444444444,0,0)" xlink:href="#C"/><use transform="matrix(0.010850694444444444,0,0,0.010850694444444444,14.073350694444445,0)" xlink:href="#D"/><use transform="matrix(0.010850694444444444,0,0,0.010850694444444444,27.39800347222222,0)" xlink:href="#E"/><use transform="matrix(0.010850694444444444,0,0,0.010850694444444444,39.127604166666664,0)" xlink:href="#F"/><use transform="matrix(0.010850694444444444,0,0,0.010850694444444444,46.18055555555556,0)" xlink:href="#G"/><use transform="matrix(0.010850694444444444,0,0,0.010850694444444444,59.80902777777778,0)" xlink:href="#H"/><use transform="matrix(0.010850694444444444,0,0,0.010850694444444444,67.80598958333333,0)" xlink:href="#I"/><use transform="matrix(0.010850694444444444,0,0,0.010850694444444444,80.76171875,0)" xlink:href="#E"/></g><path d="M180 0v-1490h908v168H370v486h669v168H370v500h727V0H180" id="J"/><path d="M65 0l393-574-370-544h210c88 136 192 297 267 435 67-142 176-302 264-435h206L661-564 1053 0H844c-94-144-206-310-287-458C484-308 366-142 273 0H65" id="K"/><path d="M158 418v-1536h174v179h20c37-59 106-193 324-193 279 0 474 222 474 576 0 356-194 580-473 580-213 0-288-135-325-197h-14v591H158zm492-555c209 0 317-186 317-421 0-232-105-413-317-413-206 0-314 166-314 413 0 249 111 421 314 421" id="L"/><g id="b"><use transform="matrix(0.010850694444444444,0,0,0.010850694444444444,0,0)" xlink:href="#J"/><use transform="matrix(0.010850694444444444,0,0,0.010850694444444444,13.35720486111111,0)" xlink:href="#K"/><use transform="matrix(0.010850694444444444,0,0,0.010850694444444444,25.48828125,0)" xlink:href="#L"/><use transform="matrix(0.010850694444444444,0,0,0.010850694444444444,39.09505208333333,0)" xlink:href="#D"/><use transform="matrix(0.010850694444444444,0,0,0.010850694444444444,52.41970486111111,0)" xlink:href="#H"/><use transform="matrix(0.010850694444444444,0,0,0.010850694444444444,61.1328125,0)" xlink:href="#F"/><use transform="matrix(0.010850694444444444,0,0,0.010850694444444444,68.18576388888889,0)" xlink:href="#I"/><use transform="matrix(0.010850694444444444,0,0,0.010850694444444444,81.14149305555556,0)" xlink:href="#H"/></g><path d="M52 0l541-1490h220L1361 0h-200l-149-416H398L254 0H52zm404-582h497c-103-290-145-390-251-756-108 377-145 460-246 756" id="M"/><path d="M537 14c-226 0-379-139-379-422v-710h180v695c0 172 97 275 253 275 160 0 281-109 281-300v-670h181V0H879v-209C806-46 684 14 537 14" id="N"/><path d="M338-670V0H158v-1490h180v566c73-149 190-208 336-208 226 0 379 139 379 422V0H872v-695c0-172-96-275-252-275-161 0-282 109-282 300" id="O"/><g id="c"><use transform="matrix(0.010850694444444444,0,0,0.010850694444444444,0,0)" xlink:href="#M"/><use transform="matrix(0.010850694444444444,0,0,0.010850694444444444,15.33203125,0)" xlink:href="#N"/><use transform="matrix(0.010850694444444444,0,0,0.010850694444444444,28.47222222222222,0)" xlink:href="#F"/><use transform="matrix(0.010850694444444444,0,0,0.010850694444444444,35.7421875,0)" xlink:href="#O"/></g><path fill="#333" d="M681 22C323 22 94-145 85-462h297c10 151 131 226 296 226 163 0 271-77 271-190 0-102-95-149-257-189l-164-41c-252-61-403-188-403-405 0-269 236-449 560-449 330 0 546 183 551 445H941c-11-119-106-188-259-188-156 0-244 72-244 172-3 156 226 185 373 221 250 61 445 186 445 436 0 271-213 446-575 446" id="P"/><path fill="#333" d="M789 20C394 20 94-260 94-744c0-487 300-766 695-766s695 279 695 766c0 264-89 467-233 597l215 271h-285L1058-29C976 3 886 20 789 20zm-94-532h261l108 139c70-83 110-208 110-371 0-321-154-495-385-495s-385 175-385 495c0 356 184 537 481 482" id="Q"/><path fill="#333" d="M135 0v-1490h305v1237h643V0H135" id="R"/><g id="d"><use transform="matrix(0.006510416666666667,0,0,0.006510416666666667,0,0)" xlink:href="#P"/><use transform="matrix(0.006510416666666667,0,0,0.006510416666666667,8.73046875,0)" xlink:href="#Q"/><use transform="matrix(0.006510416666666667,0,0,0.006510416666666667,19.088541666666668,0)" xlink:href="#R"/></g><path d="M784 20c-382 0-662-292-662-764 0-473 280-766 662-766s660 293 660 766c0 472-278 764-660 764zm0-176c266 0 475-207 475-588 0-383-209-590-475-590-268 0-477 208-477 590 0 380 209 588 477 588" id="S"/><path d="M338-1490V0H158v-1490h180" id="T"/><g id="e"><use transform="matrix(0.010850694444444444,0,0,0.010850694444444444,0,0)" xlink:href="#S"/><use transform="matrix(0.010850694444444444,0,0,0.010850694444444444,16.9921875,0)" xlink:href="#F"/><use transform="matrix(0.010850694444444444,0,0,0.010850694444444444,24.04513888888889,0)" xlink:href="#I"/><use transform="matrix(0.010850694444444444,0,0,0.010850694444444444,37.00086805555556,0)" xlink:href="#T"/></g><path d="M783 20c-382 0-661-292-661-764 0-473 279-766 661-766 302 0 548 182 601 489h-190c-42-204-217-313-411-313-268 0-476 208-476 590 0 381 209 588 476 588 195 0 369-110 411-313h190c-52 303-296 489-601 489" id="U"/><path d="M613 24c-304 0-509-231-509-576 0-350 205-580 509-580 216 0 392 114 453 309l-173 49c-33-115-133-197-280-197-223 0-326 196-326 419 0 220 103 415 326 415 150 0 252-85 285-206l172 49C1010-95 832 24 613 24" id="V"/><g id="f"><use transform="matrix(0.010850694444444444,0,0,0.010850694444444444,0,0)" xlink:href="#U"/><use transform="matrix(0.010850694444444444,0,0,0.010850694444444444,16.23263888888889,0)" xlink:href="#D"/><use transform="matrix(0.010850694444444444,0,0,0.010850694444444444,29.557291666666664,0)" xlink:href="#T"/><use transform="matrix(0.010850694444444444,0,0,0.010850694444444444,34.93923611111111,0)" xlink:href="#T"/><use transform="matrix(0.010850694444444444,0,0,0.010850694444444444,40.32118055555555,0)" xlink:href="#I"/><use transform="matrix(0.010850694444444444,0,0,0.010850694444444444,53.27690972222221,0)" xlink:href="#V"/><use transform="matrix(0.010850694444444444,0,0,0.010850694444444444,65.97222222222221,0)" xlink:href="#F"/><use transform="matrix(0.010850694444444444,0,0,0.010850694444444444,73.0251736111111,0)" xlink:href="#D"/><use transform="matrix(0.010850694444444444,0,0,0.010850694444444444,86.34982638888887,0)" xlink:href="#H"/></g><path d="M180 0v-1490h510c348 0 508 194 508 460 0 198-88 351-276 417L1256 0h-220L726-579c-117 2-238 0-356 1V0H180zm190-747h312c235 0 327-108 327-283 0-177-92-293-329-293H370v576" id="W"/><path d="M577 24c-279 0-473-224-473-580 0-354 195-576 474-576 218 0 287 134 324 193h14v-551h180V0H922v-173h-20C865-111 790 24 577 24zm27-161c203 0 314-172 314-421 0-247-108-413-314-413-212 0-317 181-317 413 0 235 108 421 317 421" id="X"/><g id="g"><use transform="matrix(0.010850694444444444,0,0,0.010850694444444444,0,0)" xlink:href="#W"/><use transform="matrix(0.010850694444444444,0,0,0.010850694444444444,13.975694444444445,0)" xlink:href="#I"/><use transform="matrix(0.010850694444444444,0,0,0.010850694444444444,26.931423611111104,0)" xlink:href="#X"/></g><path d="M471 26C259 26 90-98 90-318c0-256 228-303 435-329 202-27 287-16 287-108 0-139-79-219-234-219-161 0-248 86-283 164l-173-57c86-203 278-265 451-265 150 0 419 46 419 395V0H815v-152h-12C765-73 660 26 471 26zm31-159c199 0 310-134 310-271v-155c-30 35-226 55-295 64-131 17-246 59-246 186 0 116 97 176 231 176" id="Y"/><path d="M338-670V0H158v-1118h173l1 207c72-158 192-221 342-221 226 0 378 139 378 422V0H872v-695c0-172-96-275-252-275-161 0-282 109-282 300" id="Z"/><g id="h"><use transform="matrix(0.010850694444444444,0,0,0.010850694444444444,0,0)" xlink:href="#C"/><use transform="matrix(0.010850694444444444,0,0,0.010850694444444444,14.192708333333332,0)" xlink:href="#Y"/><use transform="matrix(0.010850694444444444,0,0,0.010850694444444444,26.671006944444443,0)" xlink:href="#Z"/><use transform="matrix(0.010850694444444444,0,0,0.010850694444444444,39.80034722222222,0)" xlink:href="#X"/><use transform="matrix(0.010850694444444444,0,0,0.010850694444444444,53.40711805555556,0)" xlink:href="#Y"/></g><path d="M789 20c-398 0-667-293-667-764 0-473 273-766 655-766 315 0 558 198 612 487h-196c-61-191-204-311-415-311-262 0-471 207-471 590 0 380 208 588 482 588 249 0 420-165 425-427H828v-166h572v163c0 370-256 606-611 606" id="aa"/><path d="M678-1118v154H420V0H240v-964H20v-154h220v-149c0-194 155-293 318-293 85 0 141 18 168 30l-50 154c-19-6-47-17-97-17-111 0-159 58-159 166v109h258" id="ab"/><g id="i"><use transform="matrix(0.010850694444444444,0,0,0.010850694444444444,0,0)" xlink:href="#aa"/><use transform="matrix(0.010850694444444444,0,0,0.010850694444444444,16.57986111111111,0)" xlink:href="#H"/><use transform="matrix(0.010850694444444444,0,0,0.010850694444444444,24.94574652777778,0)" xlink:href="#Y"/><use transform="matrix(0.010850694444444444,0,0,0.010850694444444444,37.424045138888886,0)" xlink:href="#ab"/><use transform="matrix(0.010850694444444444,0,0,0.010850694444444444,45.30164930555556,0)" xlink:href="#Y"/><use transform="matrix(0.010850694444444444,0,0,0.010850694444444444,57.77994791666667,0)" xlink:href="#Z"/><use transform="matrix(0.010850694444444444,0,0,0.010850694444444444,70.90928819444444,0)" xlink:href="#Y"/></g><path d="M218-607c0-325 108-727 258-974h175c-155 315-250 682-250 974 0 265 78 531 250 886H476C306-10 218-315 218-607" id="ac"/><path d="M600 0L52-1490h200c166 485 304 806 458 1336 156-533 285-846 449-1336h202L819 0H600" id="ad"/><path d="M158 0v-1118h180V0H158zm91-1301c-68 0-125-53-125-119s57-119 125-119c69 0 126 53 126 119s-57 119-126 119" id="ae"/><path d="M126 0v-134l627-806v-11H146v-167h839v143L376-178v11h629V0H126" id="af"/><path d="M96 279C273-86 346-350 346-607c0-292-95-659-250-974h175c150 246 258 650 258 974 0 297-91 602-258 886H96" id="ag"/><g id="j"><use transform="matrix(0.010850694444444444,0,0,0.010850694444444444,0,0)" xlink:href="#ac"/><use transform="matrix(0.010850694444444444,0,0,0.010850694444444444,8.10546875,0)" xlink:href="#ad"/><use transform="matrix(0.010850694444444444,0,0,0.010850694444444444,23.4375,0)" xlink:href="#ae"/><use transform="matrix(0.010850694444444444,0,0,0.010850694444444444,28.819444444444443,0)" xlink:href="#E"/><use transform="matrix(0.010850694444444444,0,0,0.010850694444444444,40.549045138888886,0)" xlink:href="#N"/><use transform="matrix(0.010850694444444444,0,0,0.010850694444444444,53.68923611111111,0)" xlink:href="#Y"/><use transform="matrix(0.010850694444444444,0,0,0.010850694444444444,66.16753472222221,0)" xlink:href="#T"/><use transform="matrix(0.010850694444444444,0,0,0.010850694444444444,71.54947916666666,0)" xlink:href="#ae"/><use transform="matrix(0.010850694444444444,0,0,0.010850694444444444,76.9314236111111,0)" xlink:href="#af"/><use transform="matrix(0.010850694444444444,0,0,0.010850694444444444,89.20355902777777,0)" xlink:href="#Y"/><use transform="matrix(0.010850694444444444,0,0,0.010850694444444444,101.68185763888889,0)" xlink:href="#F"/><use transform="matrix(0.010850694444444444,0,0,0.010850694444444444,108.95182291666666,0)" xlink:href="#ae"/><use transform="matrix(0.010850694444444444,0,0,0.010850694444444444,114.3337673611111,0)" xlink:href="#D"/><use transform="matrix(0.010850694444444444,0,0,0.010850694444444444,127.65842013888887,0)" xlink:href="#Z"/><use transform="matrix(0.010850694444444444,0,0,0.010850694444444444,140.78776041666666,0)" xlink:href="#E"/><use transform="matrix(0.010850694444444444,0,0,0.010850694444444444,152.51736111111111,0)" xlink:href="#ag"/></g><g id="k"><use transform="matrix(0.010850694444444444,0,0,0.010850694444444444,0,0)" xlink:href="#C"/><use transform="matrix(0.010850694444444444,0,0,0.010850694444444444,14.073350694444445,0)" xlink:href="#D"/><use transform="matrix(0.010850694444444444,0,0,0.010850694444444444,27.39800347222222,0)" xlink:href="#E"/><use transform="matrix(0.010850694444444444,0,0,0.010850694444444444,39.127604166666664,0)" xlink:href="#F"/><use transform="matrix(0.010850694444444444,0,0,0.010850694444444444,46.18055555555556,0)" xlink:href="#G"/><use transform="matrix(0.010850694444444444,0,0,0.010850694444444444,59.80902777777778,0)" xlink:href="#H"/><use transform="matrix(0.010850694444444444,0,0,0.010850694444444444,67.80598958333333,0)" xlink:href="#I"/><use transform="matrix(0.010850694444444444,0,0,0.010850694444444444,80.76171875,0)" xlink:href="#E"/></g><path d="M158 0v-1118h175l1 205c55-151 181-225 313-225 147 0 245 90 285 228 53-141 190-228 352-228 194 0 352 125 352 384V0h-181v-749c0-161-105-225-225-225-151 0-243 103-243 244V0H807v-767c0-124-93-207-219-207-131 0-250 92-250 270V0H158" id="ah"/><g id="l"><use transform="matrix(0.010850694444444444,0,0,0.010850694444444444,0,0)" xlink:href="#C"/><use transform="matrix(0.010850694444444444,0,0,0.010850694444444444,14.192708333333332,0)" xlink:href="#H"/><use transform="matrix(0.010850694444444444,0,0,0.010850694444444444,22.189670138888886,0)" xlink:href="#D"/><use transform="matrix(0.010850694444444444,0,0,0.010850694444444444,35.514322916666664,0)" xlink:href="#ah"/><use transform="matrix(0.010850694444444444,0,0,0.010850694444444444,54.98046875,0)" xlink:href="#I"/><use transform="matrix(0.010850694444444444,0,0,0.010850694444444444,67.93619791666667,0)" xlink:href="#F"/><use transform="matrix(0.010850694444444444,0,0,0.010850694444444444,75.20616319444444,0)" xlink:href="#O"/><use transform="matrix(0.010850694444444444,0,0,0.010850694444444444,88.34635416666666,0)" xlink:href="#I"/><use transform="matrix(0.010850694444444444,0,0,0.010850694444444444,101.30208333333333,0)" xlink:href="#N"/><use transform="matrix(0.010850694444444444,0,0,0.010850694444444444,114.44227430555556,0)" xlink:href="#E"/></g><path d="M180 0v-1490h270l367 940c28 72 75 218 110 339 35-117 81-264 110-339l362-940h271V0h-187c2-448-5-837 7-1287-157 497-311 829-483 1287H842C666-458 514-784 354-1284c12 438 5 843 7 1284H180" id="ai"/><g id="m"><use transform="matrix(0.010850694444444444,0,0,0.010850694444444444,0,0)" xlink:href="#ac"/><use transform="matrix(0.010850694444444444,0,0,0.010850694444444444,8.10546875,0)" xlink:href="#ai"/><use transform="matrix(0.010850694444444444,0,0,0.010850694444444444,28.17925347222222,0)" xlink:href="#I"/><use transform="matrix(0.010850694444444444,0,0,0.010850694444444444,41.134982638888886,0)" xlink:href="#F"/><use transform="matrix(0.010850694444444444,0,0,0.010850694444444444,48.404947916666664,0)" xlink:href="#H"/><use transform="matrix(0.010850694444444444,0,0,0.010850694444444444,57.11805555555555,0)" xlink:href="#ae"/><use transform="matrix(0.010850694444444444,0,0,0.010850694444444444,62.5,0)" xlink:href="#V"/><use transform="matrix(0.010850694444444444,0,0,0.010850694444444444,75.1953125,0)" xlink:href="#E"/><use transform="matrix(0.010850694444444444,0,0,0.010850694444444444,86.92491319444444,0)" xlink:href="#ag"/></g><path d="M180 0v-1490h190v1322h690V0H180" id="aj"/><path d="M158 0v-1490h180v865h22l478-493h223L593-638 1096 0H865L456-523 338-412V0H158" id="ak"/><g id="n"><use transform="matrix(0.010850694444444444,0,0,0.010850694444444444,0,0)" xlink:href="#aj"/><use transform="matrix(0.010850694444444444,0,0,0.010850694444444444,12.565104166666666,0)" xlink:href="#D"/><use transform="matrix(0.010850694444444444,0,0,0.010850694444444444,25.889756944444443,0)" xlink:href="#ak"/><use transform="matrix(0.010850694444444444,0,0,0.010850694444444444,38.0859375,0)" xlink:href="#ae"/></g><g id="o"><use transform="matrix(0.010850694444444444,0,0,0.010850694444444444,0,0)" xlink:href="#ac"/><use transform="matrix(0.010850694444444444,0,0,0.010850694444444444,8.10546875,0)" xlink:href="#aj"/><use transform="matrix(0.010850694444444444,0,0,0.010850694444444444,20.670572916666664,0)" xlink:href="#D"/><use transform="matrix(0.010850694444444444,0,0,0.010850694444444444,33.99522569444444,0)" xlink:href="#G"/><use transform="matrix(0.010850694444444444,0,0,0.010850694444444444,47.623697916666664,0)" xlink:href="#E"/><use transform="matrix(0.010850694444444444,0,0,0.010850694444444444,59.35329861111111,0)" xlink:href="#ag"/></g><path d="M98-1322v-168h1126v168H757V0H567v-1322H98" id="al"/><g id="p"><use transform="matrix(0.010850694444444444,0,0,0.010850694444444444,0,0)" xlink:href="#al"/><use transform="matrix(0.010850694444444444,0,0,0.010850694444444444,12.608506944444445,0)" xlink:href="#I"/><use transform="matrix(0.010850694444444444,0,0,0.010850694444444444,25.56423611111111,0)" xlink:href="#ah"/><use transform="matrix(0.010850694444444444,0,0,0.010850694444444444,45.03038194444444,0)" xlink:href="#L"/><use transform="matrix(0.010850694444444444,0,0,0.010850694444444444,58.63715277777778,0)" xlink:href="#D"/></g><g id="q"><use transform="matrix(0.010850694444444444,0,0,0.010850694444444444,0,0)" xlink:href="#ac"/><use transform="matrix(0.010850694444444444,0,0,0.010850694444444444,8.10546875,0)" xlink:href="#al"/><use transform="matrix(0.010850694444444444,0,0,0.010850694444444444,21.19140625,0)" xlink:href="#H"/><use transform="matrix(0.010850694444444444,0,0,0.010850694444444444,29.557291666666664,0)" xlink:href="#Y"/><use transform="matrix(0.010850694444444444,0,0,0.010850694444444444,42.03559027777777,0)" xlink:href="#V"/><use transform="matrix(0.010850694444444444,0,0,0.010850694444444444,54.73090277777778,0)" xlink:href="#I"/><use transform="matrix(0.010850694444444444,0,0,0.010850694444444444,67.68663194444444,0)" xlink:href="#E"/><use transform="matrix(0.010850694444444444,0,0,0.010850694444444444,79.41623263888889,0)" xlink:href="#ag"/></g><g id="r"><use transform="matrix(0.010850694444444444,0,0,0.010850694444444444,0,0)" xlink:href="#C"/><use transform="matrix(0.010850694444444444,0,0,0.010850694444444444,14.192708333333332,0)" xlink:href="#H"/><use transform="matrix(0.010850694444444444,0,0,0.010850694444444444,22.189670138888886,0)" xlink:href="#D"/><use transform="matrix(0.010850694444444444,0,0,0.010850694444444444,35.514322916666664,0)" xlink:href="#ab"/><use transform="matrix(0.010850694444444444,0,0,0.010850694444444444,43.73914930555556,0)" xlink:href="#ae"/><use transform="matrix(0.010850694444444444,0,0,0.010850694444444444,49.12109375,0)" xlink:href="#T"/><use transform="matrix(0.010850694444444444,0,0,0.010850694444444444,54.50303819444444,0)" xlink:href="#I"/></g><path fill="#333" d="M135 0v-1490h305v602h649v-602h306V0h-306v-635H440V0H135" id="am"/><path fill="#333" d="M75-1237v-253h1217v253H837V0H531v-1237H75" id="an"/><path fill="#333" d="M135 0v-1490h581c339 0 533 210 533 503 0 295-197 500-540 500H440V0H135zm305-733h220c186 0 274-104 274-254s-88-251-275-251H440v505" id="ao"/><g id="s"><use transform="matrix(0.006510416666666667,0,0,0.006510416666666667,0,0)" xlink:href="#am"/><use transform="matrix(0.006510416666666667,0,0,0.006510416666666667,9.9609375,0)" xlink:href="#an"/><use transform="matrix(0.006510416666666667,0,0,0.006510416666666667,18.860677083333336,0)" xlink:href="#an"/><use transform="matrix(0.006510416666666667,0,0,0.006510416666666667,27.760416666666675,0)" xlink:href="#ao"/></g><path fill="#333" d="M135 0v-1490h581c339 0 533 192 533 485 0 204-94 351-264 424L1302 0H964L680-532H440V0H135zm305-779h220c186 0 274-77 274-226 0-150-88-233-275-233H440v459" id="ap"/><path fill="#333" d="M789 20C394 20 94-260 94-744c0-487 300-766 695-766s695 279 695 766c0 485-300 764-695 764zm0-271c231 0 385-174 385-493 0-321-154-495-385-495s-385 175-385 495c0 319 154 493 385 493" id="aq"/><path fill="#333" d="M135 0v-1490h468l242 684c30 94 76 293 111 455 34-161 80-360 110-455l238-684h470V0h-307c0-447-3-765 11-1227-122 503-246 788-395 1227H826C676-435 552-717 427-1215c15 453 11 775 11 1215H135" id="ar"/><path fill="#333" d="M135 0v-1490h997v253H440v360h640v249H440v375h694V0H135" id="as"/><path fill="#333" d="M750 21c-371 0-615-218-615-544v-967h305v942c0 174 123 299 310 299s309-125 309-299v-942h306v967c0 326-247 544-615 544" id="at"/><g id="t"><use transform="matrix(0.006510416666666667,0,0,0.006510416666666667,0,0)" xlink:href="#ao"/><use transform="matrix(0.006510416666666667,0,0,0.006510416666666667,8.639322916666668,0)" xlink:href="#ap"/><use transform="matrix(0.006510416666666667,0,0,0.006510416666666667,17.395833333333336,0)" xlink:href="#aq"/><use transform="matrix(0.006510416666666667,0,0,0.006510416666666667,27.669270833333336,0)" xlink:href="#ar"/><use transform="matrix(0.006510416666666667,0,0,0.006510416666666667,40.091145833333336,0)" xlink:href="#as"/><use transform="matrix(0.006510416666666667,0,0,0.006510416666666667,48.19010416666667,0)" xlink:href="#an"/><use transform="matrix(0.006510416666666667,0,0,0.006510416666666667,57.08984375,0)" xlink:href="#am"/><use transform="matrix(0.006510416666666667,0,0,0.006510416666666667,67.05078125,0)" xlink:href="#as"/><use transform="matrix(0.006510416666666667,0,0,0.006510416666666667,75.14973958333333,0)" xlink:href="#at"/><use transform="matrix(0.006510416666666667,0,0,0.006510416666666667,84.90885416666666,0)" xlink:href="#P"/></g><path fill="#333" d="M786 20C389 20 94-260 94-744c0-487 299-766 692-766 339 0 597 194 641 529h-309c-28-162-156-258-326-258-233 0-388 179-388 495 0 323 157 493 387 493 170 0 298-97 328-259h309c-34 277-266 530-642 530" id="au"/><path fill="#333" d="M49 0l509-1490h400L1480 0h-339l-115-346H497L386 0H49zm524-585h374c-75-213-124-402-192-666-66 268-110 453-182 666" id="av"/><path fill="#333" d="M440-1490V0H135v-1490h305" id="aw"/><path fill="#333" d="M135 0v-1490h340l471 754c59 97 122 210 187 365-32-387-14-721-19-1119h312V0h-341C855-382 627-689 427-1113c32 420 16 695 20 1113H135" id="ax"/><path fill="#333" d="M795 20C377 20 94-272 94-743c0-483 302-767 694-767 335 0 593 206 635 500h-310c-42-142-154-229-320-229-230 0-389 177-389 493s154 495 393 495c212 0 340-120 345-311H818v-232h620v186c0 391-269 628-643 628" id="ay"/><g id="u"><use transform="matrix(0.006510416666666667,0,0,0.006510416666666667,0,0)" xlink:href="#P"/><use transform="matrix(0.006510416666666667,0,0,0.006510416666666667,8.73046875,0)" xlink:href="#au"/><use transform="matrix(0.006510416666666667,0,0,0.006510416666666667,18.59375,0)" xlink:href="#ap"/><use transform="matrix(0.006510416666666667,0,0,0.006510416666666667,27.350260416666668,0)" xlink:href="#av"/><use transform="matrix(0.006510416666666667,0,0,0.006510416666666667,37.3046875,0)" xlink:href="#ao"/><use transform="matrix(0.006510416666666667,0,0,0.006510416666666667,45.94401041666667,0)" xlink:href="#aw"/><use transform="matrix(0.006510416666666667,0,0,0.006510416666666667,49.68750000000001,0)" xlink:href="#ax"/><use transform="matrix(0.006510416666666667,0,0,0.006510416666666667,59.85026041666667,0)" xlink:href="#ay"/></g><g id="v"><use transform="matrix(0.006510416666666667,0,0,0.006510416666666667,0,0)" xlink:href="#ay"/><use transform="matrix(0.006510416666666667,0,0,0.006510416666666667,10.006510416666668,0)" xlink:href="#ap"/><use transform="matrix(0.006510416666666667,0,0,0.006510416666666667,18.763020833333336,0)" xlink:href="#ao"/><use transform="matrix(0.006510416666666667,0,0,0.006510416666666667,27.40234375,0)" xlink:href="#au"/></g><g id="w"><use transform="matrix(0.006510416666666667,0,0,0.006510416666666667,0,0)" xlink:href="#aq"/><use transform="matrix(0.006510416666666667,0,0,0.006510416666666667,9.850260416666666,0)" xlink:href="#an"/><use transform="matrix(0.006510416666666667,0,0,0.006510416666666667,18.75,0)" xlink:href="#R"/><use transform="matrix(0.006510416666666667,0,0,0.006510416666666667,26.2890625,0)" xlink:href="#ao"/></g><g id="x"><use transform="matrix(0.006510416666666667,0,0,0.006510416666666667,0,0)" xlink:href="#am"/><use transform="matrix(0.006510416666666667,0,0,0.006510416666666667,9.9609375,0)" xlink:href="#an"/><use transform="matrix(0.006510416666666667,0,0,0.006510416666666667,18.860677083333336,0)" xlink:href="#an"/><use transform="matrix(0.006510416666666667,0,0,0.006510416666666667,27.760416666666675,0)" xlink:href="#ao"/></g><path fill="#333" d="M633 22C291 22 81-200 81-553c0-345 210-579 537-579 292 0 525 185 525 567v84H378c7 183 109 277 260 277 105 0 184-46 216-132l272 51C1071-99 893 22 633 22zM380-669h474c-15-146-94-237-233-237-143 0-229 99-241 237" id="az"/><path fill="#333" d="M128 0v-1118h278l12 217c60-163 185-234 319-234 143 0 236 81 288 251 63-172 205-251 359-251 205 0 357 138 357 381V0h-301v-697c0-126-76-187-177-187-114 0-184 79-184 196V0H789v-705c0-109-72-179-174-179-106 0-187 74-187 208V0H128" id="aA"/><path fill="#333" d="M128 418v-1536h295v188h14c41-89 129-202 319-202 248 0 453 193 453 575 0 372-197 576-455 576-183 0-275-108-317-198h-9v597H128zm534-640c156 0 240-139 240-336 0-196-83-334-240-334-154 0-241 131-241 334 0 202 88 336 241 336" id="aB"/><path fill="#333" d="M628 22C291 22 81-210 81-554c0-346 210-578 547-578 336 0 547 232 547 578 0 344-211 576-547 576zm0-236c160 0 242-146 242-341 0-197-82-341-242-341S387-753 387-555c0 195 81 341 241 341" id="aC"/><g id="y"><use transform="matrix(0.006510416666666667,0,0,0.006510416666666667,0,0)" xlink:href="#an"/><use transform="matrix(0.006510416666666667,0,0,0.006510416666666667,7.858072916666667,0)" xlink:href="#az"/><use transform="matrix(0.006510416666666667,0,0,0.006510416666666667,15.80078125,0)" xlink:href="#aA"/><use transform="matrix(0.006510416666666667,0,0,0.006510416666666667,27.96875,0)" xlink:href="#aB"/><use transform="matrix(0.006510416666666667,0,0,0.006510416666666667,36.37369791666667,0)" xlink:href="#aC"/></g><path fill="#333" d="M440 22C227 22 68-92 68-313c0-250 202-322 422-343 195-21 271-24 271-105 0-95-63-149-175-149-116 0-187 57-211 129l-275-46c57-194 237-305 487-305 240 0 474 108 474 379V0H777v-155h-10C713-51 605 22 440 22zm85-211c140 0 238-93 238-211v-121c-37 26-156 42-222 51-111 16-185 59-185 149 0 87 70 132 169 132" id="aD"/><path fill="#333" d="M572 22C302 22 117-98 78-306l279-48c29 105 101 156 224 156 114 0 185-48 185-115 0-118-228-130-337-155-215-49-322-150-322-317 0-215 187-347 470-347 265 0 424 116 466 298l-266 47c-24-76-87-130-196-130-98 0-174 46-174 113 0 56 38 95 144 117l201 40c216 44 320 143 320 302 0 220-207 367-500 367" id="aE"/><path fill="#333" d="M128 0v-1490h300v802h17l366-430h347L740-633 1179 0H826L514-456l-86 97V0H128" id="aF"/><g id="z"><use transform="matrix(0.006510416666666667,0,0,0.006510416666666667,0,0)" xlink:href="#an"/><use transform="matrix(0.006510416666666667,0,0,0.006510416666666667,7.923177083333334,0)" xlink:href="#aD"/><use transform="matrix(0.006510416666666667,0,0,0.006510416666666667,15.6640625,0)" xlink:href="#aE"/><use transform="matrix(0.006510416666666667,0,0,0.006510416666666667,23.131510416666668,0)" xlink:href="#aF"/></g><path fill="#333" d="M513 14c-232 0-385-159-385-421v-711h300v659c0 139 76 222 202 222 127 0 217-86 217-234v-647h301V0H864l-4-232C797-74 683 14 513 14" id="aG"/><g id="A"><use transform="matrix(0.006510416666666667,0,0,0.006510416666666667,0,0)" xlink:href="#Q"/><use transform="matrix(0.006510416666666667,0,0,0.006510416666666667,10.358072916666668,0)" xlink:href="#aG"/><use transform="matrix(0.006510416666666667,0,0,0.006510416666666667,18.658854166666668,0)" xlink:href="#az"/><use transform="matrix(0.006510416666666667,0,0,0.006510416666666667,26.6015625,0)" xlink:href="#aG"/><use transform="matrix(0.006510416666666667,0,0,0.006510416666666667,34.90234375,0)" xlink:href="#az"/></g><g id="B"><use transform="matrix(0.008680555555555556,0,0,0.008680555555555556,0,0)" xlink:href="#am"/><use transform="matrix(0.008680555555555556,0,0,0.008680555555555556,13.28125,0)" xlink:href="#an"/><use transform="matrix(0.008680555555555556,0,0,0.008680555555555556,25.147569444444443,0)" xlink:href="#an"/><use transform="matrix(0.008680555555555556,0,0,0.008680555555555556,37.013888888888886,0)" xlink:href="#ao"/></g></defs></g></svg>